<svg width="500" height="500" viewBox="0 0 500 500" fill="none" xmlns="http://www.w3.org/2000/svg">
<path d="M250 0C112.105 0 0 112.105 0 250C0 387.895 112.105 500 250 500C387.895 500 500 387.895 500 250C500 112.105 387.895 0 250 0ZM250 134.737C293.16 134.737 328.422 170 328.422 213.159C328.422 256.315 293.159 291.578 250 291.578C206.841 291.578 171.578 256.315 171.578 213.156C171.578 170 206.841 134.737 250 134.737ZM116.842 404.737C122.632 357.37 163.159 320.524 212.105 320.524H287.896C336.841 320.524 377.368 357.366 383.159 404.737C347.371 435.789 301.055 454.211 250.001 454.211C198.947 454.211 152.632 435.789 116.842 404.737Z" fill="black"/>
</svg>
