<svg width="501" height="500" viewBox="0 0 501 500" fill="none" xmlns="http://www.w3.org/2000/svg">
<path d="M113.337 386.663C113.073 387.378 113.247 388.184 113.785 388.724C114.324 389.265 115.123 389.439 115.839 389.174L257.023 335.221L500.771 90.2729L411.115 0L167.437 244.949L113.337 386.663ZM365.697 79.4636L421.875 135.854L250.346 308.033L194.171 251.642L365.697 79.4636ZM228.962 320.653L152.992 349.371L181.881 273.111L228.962 320.653Z" fill="black"/>
<path d="M441.253 441.377C441.253 445.862 439.474 450.164 436.308 453.331C433.139 456.495 428.847 458.263 424.378 458.246H59.1689C54.7242 458.229 50.4672 456.443 47.3324 453.282C44.1944 450.118 42.4325 445.838 42.4325 441.377V74.6506C42.4499 70.1996 44.2222 65.9404 47.3568 62.7908C50.4913 59.6444 54.7379 57.8688 59.1683 57.8514H325.629L367.296 16.0271H59.1737C43.6924 16.0446 28.8463 22.2292 17.8968 33.2173C6.94994 44.2091 0.791946 59.107 0.771484 74.6504V441.377C0.792335 456.92 6.9502 471.819 17.8968 482.81C28.8472 493.798 43.6924 499.982 59.1737 500H424.383C439.868 499.983 454.71 493.798 465.66 482.81C476.61 471.818 482.767 456.92 482.785 441.377V136.339L441.119 178.163L441.253 441.377Z" fill="black"/>
</svg>
